<?xml version="1.0" encoding="UTF-8" standalone="no"?>
<!-- Created with Inkscape (http://www.inkscape.org/) -->
<svg
   xmlns:dc="http://purl.org/dc/elements/1.1/"
   xmlns:cc="http://web.resource.org/cc/"
   xmlns:rdf="http://www.w3.org/1999/02/22-rdf-syntax-ns#"
   xmlns:svg="http://www.w3.org/2000/svg"
   xmlns="http://www.w3.org/2000/svg"
   xmlns:sodipodi="http://inkscape.sourceforge.net/DTD/sodipodi-0.dtd"
   xmlns:inkscape="http://www.inkscape.org/namespaces/inkscape"
   width="64"
   height="64"
   id="svg2834"
   sodipodi:version="0.32"
   inkscape:version="0.43"
   sodipodi:docbase="/home/pippin/Desktop/OpenRaster-logo"
   sodipodi:docname="OpenRaster-nogrid.svg"
   inkscape:export-filename="/home/pippin/src/OpenRaster/OpenRaster.png"
   inkscape:export-xdpi="90"
   inkscape:export-ydpi="90"
   version="1.0">
  <defs
     id="defs2836" />
  <sodipodi:namedview
     id="base"
     pagecolor="#ffffff"
     bordercolor="#666666"
     borderopacity="1.0"
     inkscape:pageopacity="0.0"
     inkscape:pageshadow="2"
     inkscape:zoom="5.5"
     inkscape:cx="30.972308"
     inkscape:cy="37.81737"
     inkscape:current-layer="layer1"
     showgrid="true"
     inkscape:document-units="px"
     inkscape:grid-bbox="false"
     inkscape:window-width="1231"
     inkscape:window-height="899"
     inkscape:window-x="161"
     inkscape:window-y="99" />
  <metadata
     id="metadata2839">
    <rdf:RDF>
      <cc:Work
         rdf:about="">
        <dc:format>image/svg+xml</dc:format>
        <dc:type
           rdf:resource="http://purl.org/dc/dcmitype/StillImage" />
      </cc:Work>
    </rdf:RDF>
  </metadata>
  <g
     id="layer1"
     inkscape:label="Layer 1"
     inkscape:groupmode="layer">
    <path
       style="color:#000000;fill:#ff9f9f;fill-opacity:0.81621623;fill-rule:evenodd;stroke:#fe00ff;stroke-width:0.125;stroke-linecap:round;stroke-linejoin:round;marker:none;marker-start:none;marker-mid:none;marker-end:none;stroke-miterlimit:4;stroke-dasharray:none;stroke-dashoffset:0;stroke-opacity:1;visibility:visible;display:inline;overflow:visible;opacity:1"
       d="M 7.7022377,27.863606 C 14.552313,27.356213 22.097103,27.530313 29.804177,27.863606 C 35.585502,31.514044 41.084109,35.164483 45.661395,38.814921 C 39.058719,39.20745 31.5769,39.148668 23.559456,38.814921 C 17.63413,34.978986 12.373861,31.335935 7.7022377,27.863606 z "
       id="path2230"
       sodipodi:nodetypes="ccccc" />
    <path
       style="color:#000000;fill:none;fill-opacity:0.75;fill-rule:evenodd;stroke:#000000;stroke-width:1.5;stroke-linecap:round;stroke-linejoin:miter;marker:none;marker-start:none;marker-mid:none;marker-end:none;stroke-miterlimit:4;stroke-dashoffset:0;stroke-opacity:1;visibility:visible;display:inline;overflow:visible"
       d="M 7.7476927,27.863606 C 15.418309,27.926035 22.665339,27.893355 29.849632,27.863606 C 35.082302,31.514044 40.480058,35.164483 45.70685,38.81492 C 38.70537,38.9 31.243017,38.856224 23.604911,38.81492 C 18.122796,35.060459 12.908164,31.425797 7.7476927,27.863606 z "
       id="path2232"
       sodipodi:nodetypes="ccccc" />
    <path
       style="color:#000000;fill:#ffff83;fill-opacity:0.85405403;fill-rule:evenodd;stroke:#fe00ff;stroke-width:0.125;stroke-linecap:round;stroke-linejoin:round;marker:none;marker-start:none;marker-mid:none;marker-end:none;stroke-miterlimit:4;stroke-dasharray:none;stroke-dashoffset:0;stroke-opacity:1;visibility:visible;display:inline;overflow:visible;opacity:1"
       d="M 19.884058,24.227246 C 26.734133,23.719853 34.278923,23.893953 41.985997,24.227246 C 47.767322,27.877684 53.265929,31.528123 57.843215,35.178561 C 51.240539,35.57109 43.75872,35.512308 35.741276,35.178561 C 29.81595,31.342626 24.555681,27.699575 19.884058,24.227246 z "
       id="path2224"
       sodipodi:nodetypes="ccccc" />
    <path
       style="color:#000000;fill:none;fill-opacity:0.75;fill-rule:evenodd;stroke:#000000;stroke-width:1.5;stroke-linecap:round;stroke-linejoin:miter;marker:none;marker-start:none;marker-mid:none;marker-end:none;stroke-miterlimit:4;stroke-dashoffset:0;stroke-opacity:1;visibility:visible;display:inline;overflow:visible"
       d="M 19.929513,24.227246 C 27.600129,24.289675 34.847159,24.256995 42.031452,24.227246 C 47.264122,27.877684 52.661878,31.528123 57.88867,35.17856 C 50.88719,35.26364 43.424837,35.219864 35.786731,35.17856 C 30.304616,31.424099 25.089984,27.789437 19.929513,24.227246 z "
       id="path2226"
       sodipodi:nodetypes="ccccc" />
    <path
       style="color:#000000;fill:#6f6fff;fill-opacity:0.93725491;fill-rule:evenodd;stroke:#fe00ff;stroke-width:0.125;stroke-linecap:round;stroke-linejoin:round;marker:none;marker-start:none;marker-mid:none;marker-end:none;stroke-miterlimit:4;stroke-dasharray:none;stroke-dashoffset:0;stroke-opacity:1;visibility:visible;display:inline;overflow:visible;opacity:1"
       d="M 19.884058,16.227246 C 26.734133,15.719853 34.278923,15.893953 41.985997,16.227246 C 47.767322,19.877684 53.265929,23.528123 57.843215,27.178561 C 51.240539,27.57109 43.75872,27.512308 35.741276,27.178561 C 29.81595,23.342626 24.555681,19.699575 19.884058,16.227246 z "
       id="path2218"
       sodipodi:nodetypes="ccccc" />
    <path
       style="color:#000000;fill:none;fill-opacity:0.75;fill-rule:evenodd;stroke:#000000;stroke-width:1.5;stroke-linecap:round;stroke-linejoin:miter;marker:none;marker-start:none;marker-mid:none;marker-end:none;stroke-miterlimit:4;stroke-dashoffset:0;stroke-opacity:1;visibility:visible;display:inline;overflow:visible"
       d="M 19.929513,16.227246 C 27.600129,16.289675 34.847159,16.256995 42.031452,16.227246 C 47.264122,19.877684 52.661878,23.528123 57.88867,27.17856 C 50.88719,27.26364 43.424837,27.219864 35.786731,27.17856 C 30.304616,23.424099 25.089984,19.789437 19.929513,16.227246 z "
       id="path2220"
       sodipodi:nodetypes="ccccc" />
    <path
       style="color:#000000;fill:#80ff80;fill-opacity:0.87843138;fill-rule:evenodd;stroke:#fe00ff;stroke-width:0.125;stroke-linecap:round;stroke-linejoin:round;marker:none;marker-start:none;marker-mid:none;marker-end:none;stroke-miterlimit:4;stroke-dasharray:none;stroke-dashoffset:0;stroke-opacity:1;visibility:visible;display:inline;overflow:visible"
       d="M 7.3626377,10.274501 C 14.212713,9.767108 21.757503,9.941208 29.464577,10.274501 C 35.245902,13.924939 40.744509,17.575378 45.321795,21.225816 C 38.719119,21.618345 31.2373,21.559563 23.219856,21.225816 C 17.29453,17.389881 12.034261,13.74683 7.3626377,10.274501 z "
       id="path1333"
       sodipodi:nodetypes="ccccc" />
    <path
       style="color:#000000;fill:none;fill-opacity:0.75;fill-rule:evenodd;stroke:#000000;stroke-width:1.5;stroke-linecap:round;stroke-linejoin:miter;marker:none;marker-start:none;marker-mid:none;marker-end:none;stroke-miterlimit:4;stroke-dashoffset:0;stroke-opacity:1;visibility:visible;display:inline;overflow:visible"
       d="M 7.4080927,10.274501 C 15.078709,10.33693 22.325739,10.30425 29.510032,10.274501 C 34.742702,13.924939 40.140458,17.575378 45.36725,21.225815 C 38.36577,21.310895 30.903417,21.267119 23.265311,21.225815 C 17.783196,17.471354 12.568564,13.836692 7.4080927,10.274501 z "
       id="path1335"
       sodipodi:nodetypes="ccccc" />
    <path
       style="font-size:38px;font-style:normal;font-variant:normal;font-weight:bold;font-stretch:normal;text-align:start;line-height:100%;writing-mode:lr-tb;text-anchor:start;fill:#000000;fill-opacity:1;stroke:none;stroke-width:1pt;stroke-linecap:butt;stroke-linejoin:miter;stroke-opacity:1;font-family:FreeSans"
       d="M 3.6677501,47.738932 C 3.6677501,46.380091 4.0716341,45.296788 4.8793901,44.489021 C 5.6041061,43.771859 6.5213331,43.413275 7.6310581,43.413266 C 8.8993111,43.413275 9.9033471,43.862449 10.643171,44.760791 C 11.292391,45.553458 11.617004,46.565043 11.617012,47.795551 C 11.617004,49.063813 11.239547,50.098045 10.484639,50.898255 C 9.7523651,51.675816 8.8049471,52.064599 7.6423821,52.064599 C 6.3741211,52.064599 5.3700891,51.61165 4.6302671,50.705751 C 3.9885921,49.92064 3.6677501,48.931701 3.6677501,47.738932 M 7.6423821,44.862705 C 6.8270681,44.86271 6.2118131,45.217522 5.7966171,45.927135 C 5.5097421,46.425385 5.3663041,47.029316 5.3663151,47.738932 C 5.3663041,48.826014 5.6758241,49.629999 6.2948541,50.150888 C 6.6723081,50.460404 7.1214811,50.615161 7.6423821,50.615161 C 8.4350381,50.615161 9.0427451,50.267901 9.4655031,49.573377 C 9.7674631,49.082685 9.9184461,48.486302 9.9184521,47.784228 C 9.9184461,46.621662 9.5900571,45.787481 8.9332881,45.281683 C 8.5709231,45.00237 8.1406211,44.86271 7.6423821,44.862705 M 15.361147,45.587423 C 16.229296,45.58743 16.90117,45.976208 17.376772,46.753768 C 17.739125,47.327509 17.920304,48.022029 17.920312,48.837335 C 17.920304,49.886669 17.622113,50.724623 17.025737,51.351204 C 16.557683,51.834348 16.002821,52.075923 15.361147,52.075923 C 14.606229,52.075923 14.040043,51.743759 13.662587,51.079435 L 13.662587,54.272727 L 12.077265,54.272727 L 12.077265,45.689337 L 13.662587,45.689337 L 13.662587,46.595236 C 14.040043,45.923365 14.606229,45.58743 15.361147,45.587423 M 14.998788,46.9123 C 14.492992,46.912303 14.119309,47.184072 13.877739,47.727609 C 13.734302,48.044676 13.662585,48.414584 13.662587,48.837335 C 13.662585,49.637548 13.881511,50.199958 14.319365,50.524571 C 14.523188,50.675555 14.749663,50.751046 14.998788,50.751046 C 15.489479,50.751046 15.859387,50.4906 16.108514,49.969708 C 16.259492,49.652646 16.334984,49.282736 16.334988,48.859982 C 16.334984,48.037128 16.112284,47.459618 15.666889,47.127451 C 15.470606,46.984021 15.247907,46.912303 14.998788,46.9123 M 20.986448,45.587423 C 21.922539,45.58743 22.647258,45.915817 23.160604,46.572588 C 23.621096,47.153877 23.851346,47.954087 23.851352,48.973219 C 23.851346,49.063813 23.84757,49.154402 23.840028,49.24499 L 19.740837,49.24499 C 19.771031,49.992356 19.95976,50.471728 20.307024,50.683103 C 20.4882,50.796341 20.722224,50.85296 21.009094,50.85296 C 21.575278,50.85296 21.967834,50.622712 22.186763,50.162212 C 22.201858,50.139564 22.213181,50.113144 22.220735,50.082946 L 23.783409,50.082946 C 23.556929,50.845412 23.07756,51.404047 22.345295,51.758858 C 21.922539,51.962685 21.458266,52.064599 20.952476,52.064599 C 19.880494,52.064599 19.099158,51.649396 18.608463,50.818989 C 18.306496,50.298097 18.155514,49.660195 18.155514,48.905278 C 18.155514,47.599278 18.54807,46.659408 19.333183,46.085667 C 19.78613,45.75351 20.337218,45.58743 20.986448,45.587423 M 22.198087,48.191883 C 22.137689,47.36148 21.794203,46.900979 21.167627,46.810387 C 21.099682,46.802842 21.031739,46.799066 20.9638,46.799062 C 20.269275,46.799066 19.869171,47.263339 19.763484,48.191883 L 22.198087,48.191883 M 24.281505,45.689337 L 25.866829,45.689337 L 25.866829,46.572588 C 26.282029,45.953561 26.844439,45.625176 27.554069,45.587423 C 27.599359,45.58743 27.648429,45.58743 27.701269,45.587423 C 28.660009,45.58743 29.290369,45.968661 29.592339,46.731121 C 29.698019,47.017992 29.750859,47.342605 29.750869,47.704962 L 29.750869,51.804153 L 28.165549,51.804153 L 28.165549,48.033349 C 28.165539,47.301086 27.825829,46.934951 27.146409,46.934948 C 26.587769,46.934951 26.202769,47.146329 25.991389,47.569077 C 25.908349,47.735163 25.866829,47.92389 25.866829,48.135263 L 25.866829,51.804153 L 24.281505,51.804153 L 24.281505,45.689337 M 35.431699,50.388686 L 35.454349,49.528082 L 35.454349,49.516759 C 35.454339,48.965671 35.224089,48.64861 34.763599,48.565566 C 34.657899,48.542921 34.537119,48.531597 34.401239,48.531594 L 32.453559,48.531594 L 32.453559,51.804153 L 30.754999,51.804153 L 30.754999,43.549152 L 35.182579,43.549152 C 36.246999,43.54916 36.933969,43.98701 37.243499,44.862705 C 37.349179,45.149579 37.402019,45.45532 37.402029,45.779927 C 37.402019,46.776419 36.937749,47.455843 36.009209,47.818199 C 36.439499,48.00693 36.715049,48.180561 36.835839,48.33909 C 37.001919,48.565568 37.100049,49.056261 37.130259,49.811176 C 37.137799,50.037651 37.145349,50.37359 37.152909,50.818989 C 37.152899,51.120953 37.258589,51.336104 37.469969,51.464441 C 37.485059,51.479541 37.500159,51.490864 37.515269,51.498413 L 37.515269,51.804153 L 35.692139,51.804153 C 35.533609,51.517284 35.446789,51.166249 35.431699,50.751046 C 35.431689,50.652907 35.431689,50.532123 35.431699,50.388686 M 35.703469,46.017726 C 35.703459,45.466644 35.499629,45.13448 35.091989,45.021237 C 34.948549,44.983495 34.752269,44.964624 34.503149,44.964617 L 32.453559,44.964617 L 32.453559,47.116127 L 34.503149,47.116127 C 35.039129,47.116131 35.386399,46.991569 35.544939,46.742444 C 35.650619,46.568819 35.703459,46.327245 35.703469,46.017726 M 39.511179,52.064599 C 38.786459,52.064599 38.258019,51.796602 37.925859,51.260613 C 37.744679,50.966197 37.654089,50.622712 37.654089,50.230154 C 37.654089,49.150627 38.254249,48.50895 39.454569,48.30512 L 40.088689,48.191883 C 40.579389,48.116395 40.885129,48.048452 41.005919,47.988055 C 41.239939,47.882369 41.356949,47.712515 41.356949,47.478486 C 41.356949,47.070835 41.051209,46.867008 40.439729,46.867005 C 39.926379,46.867008 39.597999,46.987797 39.454569,47.229365 C 39.386619,47.342605 39.341329,47.501137 39.318679,47.704962 L 37.789979,47.704962 C 37.888119,46.293273 38.760039,45.58743 40.405759,45.587423 C 42.074119,45.58743 42.908299,46.214007 42.908299,47.467163 L 42.908299,50.864283 C 42.908299,51.120953 43.006439,51.347428 43.202719,51.543707 C 43.225359,51.566355 43.248009,51.589002 43.270659,51.61165 L 43.270659,51.804153 L 41.549459,51.804153 C 41.428659,51.622973 41.368269,51.419147 41.368279,51.192672 C 40.809639,51.773955 40.190609,52.064599 39.511179,52.064599 M 41.356949,49.346902 L 41.356949,48.916601 C 41.213509,48.984546 40.990819,49.048713 40.688849,49.109104 L 40.145309,49.211018 C 39.647069,49.316707 39.356419,49.505438 39.273389,49.777205 C 39.250739,49.852698 39.239409,49.943288 39.239409,50.048974 C 39.239409,50.418884 39.424369,50.652907 39.794279,50.751046 C 39.884869,50.773693 39.986779,50.785017 40.100019,50.785017 C 40.756789,50.785017 41.156899,50.471728 41.300329,49.845148 C 41.338079,49.694166 41.356949,49.528086 41.356949,49.346902 M 44.824779,50.026326 C 44.900259,50.358491 45.051249,50.577418 45.277719,50.683103 C 45.466449,50.773693 45.730669,50.818989 46.070389,50.818989 C 46.749809,50.818989 47.134809,50.660456 47.225409,50.343391 C 47.240499,50.305647 47.248049,50.264125 47.248049,50.218831 C 47.248049,50.022554 47.131039,49.879119 46.897019,49.788528 C 46.844169,49.765882 46.783779,49.743234 46.715839,49.720586 L 44.824779,49.131752 C 44.439769,49.010967 44.179319,48.901505 44.043439,48.803364 C 43.673529,48.539145 43.488569,48.14659 43.488569,47.625695 C 43.488569,46.810389 43.850929,46.229107 44.575649,45.88184 C 44.968209,45.685567 45.443799,45.58743 46.002439,45.587423 C 47.149909,45.58743 47.938799,45.930914 48.369099,46.617884 C 48.557829,46.912303 48.655969,47.259566 48.663519,47.659666 L 47.134819,47.659666 C 47.127269,47.108582 46.746029,46.833037 45.991119,46.833034 C 45.507969,46.833037 45.213549,46.965149 45.107869,47.229365 C 45.085219,47.282214 45.073899,47.338832 45.073899,47.39922 C 45.073899,47.565307 45.164489,47.689868 45.345669,47.772903 C 45.413609,47.803103 45.507969,47.837074 45.628759,47.874817 L 47.633059,48.452327 C 48.433269,48.686353 48.833369,49.199697 48.833379,49.992356 C 48.833369,50.67178 48.561599,51.203995 48.018069,51.589002 C 47.565119,51.906067 46.946089,52.064599 46.160979,52.064599 C 44.409569,52.064599 43.454599,51.471989 43.296069,50.286772 C 43.280969,50.203734 43.273419,50.116917 43.273419,50.026326 L 44.824779,50.026326 M 51.908769,45.813898 L 51.908769,46.867005 L 51.025519,46.867005 L 51.025519,50.196183 C 51.025509,50.543446 51.093459,50.751046 51.229339,50.818989 C 51.304839,50.849184 51.410519,50.864283 51.546409,50.864283 C 51.629449,50.864283 51.750229,50.85296 51.908769,50.830312 L 51.908769,51.940038 C 51.652099,52.023076 51.346349,52.064599 50.991549,52.064599 C 49.957309,52.064599 49.440189,51.585227 49.440189,50.626484 L 49.440189,46.867005 L 48.658859,46.867005 L 48.658859,45.813898 L 49.440189,45.813898 L 49.440189,44.171956 L 51.025519,44.171956 L 51.025519,45.813898 L 51.908769,45.813898 M 54.774009,45.587423 C 55.710099,45.58743 56.434819,45.915817 56.948169,46.572588 C 57.408659,47.153877 57.638909,47.954087 57.638919,48.973219 C 57.638909,49.063813 57.635139,49.154402 57.627589,49.24499 L 53.528399,49.24499 C 53.558599,49.992356 53.747329,50.471728 54.094589,50.683103 C 54.275769,50.796341 54.509789,50.85296 54.796659,50.85296 C 55.362839,50.85296 55.755399,50.622712 55.974329,50.162212 C 55.989419,50.139564 56.000749,50.113144 56.008299,50.082946 L 57.570979,50.082946 C 57.344489,50.845412 56.865119,51.404047 56.132859,51.758858 C 55.710099,51.962685 55.245829,52.064599 54.740039,52.064599 C 53.668059,52.064599 52.886719,51.649396 52.396029,50.818989 C 52.094059,50.298097 51.943079,49.660195 51.943079,48.905278 C 51.943079,47.599278 52.335629,46.659408 53.120749,46.085667 C 53.573689,45.75351 54.124779,45.58743 54.774009,45.587423 M 55.985649,48.191883 C 55.925249,47.36148 55.581769,46.900979 54.955189,46.810387 C 54.887249,46.802842 54.819309,46.799066 54.751369,46.799062 C 54.056839,46.799066 53.656739,47.263339 53.551049,48.191883 L 55.985649,48.191883 M 58.069069,45.689337 L 59.654399,45.689337 L 59.654399,46.889653 C 59.933709,46.210234 60.364009,45.795029 60.945299,45.644042 C 61.081179,45.606301 61.217069,45.58743 61.352959,45.587423 C 61.420889,45.58743 61.485059,45.591205 61.545459,45.598747 L 61.545459,47.206717 C 61.356729,47.176525 61.190649,47.161425 61.047219,47.161422 C 60.118669,47.161425 59.654389,47.625698 59.654399,48.554241 L 59.654399,51.804153 L 58.069069,51.804153 L 58.069069,45.689337"
       id="text2475" />
    <path
       style="fill:#000000"
       d=""
       id="path3011" />
  </g>
</svg>
