<?xml version="1.0" ?>
<svg width="382" height="128">
  <defs><filter id="blur" ><feGaussianBlur stdDeviation="6"/></filter></defs>
  <g style="fill:white;stroke:white;stroke-width:2;stroke-linejoin:round" transform='translate(14,14)'> 
    <g transform='translate(264,0)'> <!-- L -->

      <!-- shadow -->
      <path style='fill:black;stroke:black;stroke-width:3;filter:url(#blur)'
            d="M 30,4 C 12,13 0,30 0,50 C 0,78 23,100 50,100 C 71,100 88,88 96,71 L 56,71 C 42,71 30,59 30,45 L 30,4 z" />
      <!-- actual shape -->
      <path d="M 30,4 C 12,13 0,30 0,50 C 0,78 23,100 50,100 C 71,100 88,88 96,71 L 56,71 C 42,71 30,59 30,45 L 30,4 z" />
    </g>

    <g transform='translate(176,0)'> <!-- G -->
      <path style='fill:black;stroke:black;stroke-width:3;filter:url(#blur)'
            d="M 0,50 C 0,78 24,100 50,100 C 77,100 100,78 100,50 C 100,45 99,40 98,35 C 82,35 66,35 50,35 C 42,35 35,42 35,50 C 35,58 42,65 50,65 C 56,65 61,61 64,56 C 67,51 75,55 73,60 C 69,69 60,75 50,75 C 36,75 25,64 25,50 C 25,36 36,25 50,25 L 93,25 C 83,9 67,0 49,0 C 25,0 0,20 0,50 z" />
      <path d="M 0,50 C 0,78 24,100 50,100 C 77,100 100,78 100,50 C 100,45 99,40 98,35 C 82,35 66,35 50,35 C 42,35 35,42 35,50 C 35,58 42,65 50,65 C 56,65 61,61 64,56 C 67,51 75,55 73,60 C 69,69 60,75 50,75 C 36,75 25,64 25,50 C 25,36 36,25 50,25 L 93,25 C 83,9 67,0 49,0 C 25,0 0,20 0,50 z" />
    </g>

    <g transform='translate(88,0)'> <!-- E -->
      <path style='fill:black;stroke:black;stroke-width:3;filter:url(#blur)'
            d="M 50,0 C 23,0 0,22 0,50 C 0,77 22,100 50,100 C 68,100 85,90 93,75 L 40,75 C 35,75 35,65 40,65 L 98,65 C 100,55 100,45 98,35 L 40,35 C 35,35 35,25 40,25 L 93,25 C 84,10 68,0 50,0 z"/>
      <path d="M 50,0 C 23,0 0,22 0,50 C 0,77 22,100 50,100 C 68,100 85,90 93,75 L 40,75 C 35,75 35,65 40,65 L 98,65 C 100,55 100,45 98,35 L 40,35 C 35,35 35,25 40,25 L 93,25 C 84,10 68,0 50,0 z"/>
    </g>

    <g transform='translate(0,0)'> <!-- G -->
      <path style='fill:black;stroke:black;stroke-width:3;filter:url(#blur)'
            d="M 0,50 C 0,78 24,100 50,100 C 77,100 100,78 100,50 C 100,45 99,40 98,35 C 82,35 66,35 50,35 C 42,35 35,42 35,50 C 35,58 42,65 50,65 C 56,65 61,61 64,56 C 67,51 75,55 73,60 C 69,69 60,75 50,75 C 36,75 25,64 25,50 C 25,36 36,25 50,25 L 93,25 C 83,9 67,0 49,0 C 25,0 0,20 0,50 z"/>
      <path d="M 0,50 C 0,78 24,100 50,100 C 77,100 100,78 100,50 C 100,45 99,40 98,35 C 82,35 66,35 50,35 C 42,35 35,42 35,50 C 35,58 42,65 50,65 C 56,65 61,61 64,56 C 67,51 75,55 73,60 C 69,69 60,75 50,75 C 36,75 25,64 25,50 C 25,36 36,25 50,25 L 93,25 C 83,9 67,0 49,0 C 25,0 0,20 0,50 z" />
    </g>
  </g>
</svg>
